<svg xmlns="http://www.w3.org/2000/svg" xmlns:xlink="http://www.w3.org/1999/xlink" version="1.1" width="841.89pt" height="595.276pt" viewBox="0 0 841.89 595.276">
<defs>
<clipPath id="clip_0">
<path transform="matrix(1,0,0,-1,0,595.276)" d="M0 0H841.89V595.276H0Z"/>
</clipPath>
<clipPath id="clip_1">
<path transform="matrix(1,0,0,-1,0,595.276)" d="M0 0H841.89V595.276H0Z"/>
</clipPath>
</defs>
<g clip-path="url(#clip_0)">
<path transform="matrix(1,0,0,-1,238.894,438.9604)" d="M0 0V349.956C-96.638 349.956-174.978 271.615-174.978 174.977-174.978 78.339-96.638 0 0 0M-20.227 174.977C-20.227 145.602-44.041 121.789-73.416 121.789-102.791 121.789-126.605 145.602-126.605 174.977-126.605 204.352-102.791 228.166-73.416 228.166-44.041 228.166-20.227 204.352-20.227 174.977" fill="#d3525f"/>
<path transform="matrix(1,0,0,-1,198.278,263.9824)" d="M0 0C0-18.115-14.685-32.8-32.8-32.8-50.915-32.8-65.6-18.115-65.6 0-65.6 18.115-50.915 32.8-32.8 32.8-14.685 32.8 0 18.115 0 0" fill="#827b73"/>
<path transform="matrix(1,0,0,-1,236.7886,89.004398)" d="M0 0C128.502 0 232.674-104.172 232.674-232.674H0" fill="#fbb040"/>
<path transform="matrix(1,0,0,-1,344.7731,370.0787)" d="M0 0C-18.925-40.68-60.161-68.882-107.984-68.882V48.175" fill="#359272"/>
</g>
<path transform="matrix(1,0,0,-1,303.074,506.1727)" d="M0 0 60.005 131.254H73.69L133.695 0H119.071L63.941 123.189H69.565L14.442 0ZM23.63 35.063 27.755 46.313H104.068L108.193 35.063Z" fill="#0a0203"/>
<path transform="matrix(1,0,0,-1,0,595.276)" d="M455.707 228.234H469.02V89.103H455.707Z" fill="#0a0203"/>
<g clip-path="url(#clip_1)">
<path transform="matrix(1,0,0,-1,629.1456,406.797)" d="M0 0C7.999 0 14.966-1.531 20.909-4.594 26.845-7.657 31.47-12.312 34.783-18.56 38.095-24.814 39.749-32.69 39.749-42.19V-99.376H26.436V-43.501C26.436-33.123 23.971-25.283 19.036-19.969 14.093-14.655 7.126-12.001-1.873-12.001-8.627-12.001-14.472-13.404-19.408-16.217-24.344-19.03-28.157-23.093-30.841-28.407-33.532-33.721-34.874-40.121-34.874-47.625V-99.376H-48.187V-43.501C-48.187-33.123-50.689-25.283-55.685-19.969-60.689-14.655-67.687-12.001-76.686-12.001-83.317-12.001-89.126-13.404-94.129-16.217-99.126-19.03-102.97-23.093-105.66-28.407-108.351-33.721-109.687-40.121-109.687-47.625V-99.376H-123V-.933H-110.255V-27.559L-112.316-22.873C-109.315-15.747-104.471-10.159-97.784-6.089-91.097-2.032-83.189 0-74.062 0-64.441 0-56.253-2.404-49.499-7.218-42.751-12.032-38.376-19.249-36.375-28.877L-41.622-26.808C-38.749-18.816-33.654-12.343-26.345-7.406-19.03-2.465-10.25 0 0 0" fill="#0a0203"/>
<path transform="matrix(1,0,0,-1,732.8409,507.1123)" d="M0 0C-7.376 0-13.782 1.22-19.218 3.661-24.654 6.095-28.816 9.469-31.689 13.782-34.563 18.096-36.002 23.062-36.002 28.688-36.002 33.813-34.782 38.468-32.342 42.659-29.908 46.844-25.905 50.219-20.347 52.787-14.783 55.344-7.315 56.631 2.062 56.631H36.003V46.692H2.435C-7.065 46.692-13.66 45.002-17.345 41.628-21.031 38.254-22.873 34.063-22.873 29.066-22.873 23.44-20.689 18.938-16.314 15.564-11.94 12.19-5.814 10.5 2.062 10.5 9.561 10.5 16.035 12.22 21.471 15.661 26.907 19.096 30.873 24.063 33.373 30.566L36.376 21.378C33.874 14.874 29.53 9.689 23.344 5.814 17.157 1.94 9.378 0 0 0M33.941 .94V22.69L33.373 26.253V62.628C33.373 70.999 31.031 77.442 26.345 81.945 21.659 86.441 14.686 88.693 5.437 88.693-.939 88.693-7.003 87.631-12.751 85.502-18.498 83.379-23.379 80.566-27.376 77.064L-33.373 87.003C-28.376 91.255-22.379 94.531-15.375 96.85-8.377 99.162-1 100.315 6.748 100.315 19.5 100.315 29.347 97.161 36.284 90.846 43.221 84.531 46.687 74.941 46.687 62.067V.94Z" fill="#0a0203"/>
<path transform="matrix(1,0,0,-1,532.7321,387.4075)" d="M0 0C-4.918 0-9.463 .824-13.63 2.477-17.803 4.125-21.416 6.443-24.466 9.433-27.517 12.422-29.902 15.936-31.611 19.987-33.325 24.033-34.179 28.456-34.179 33.252-34.179 38.041-33.325 42.464-31.611 46.51-29.902 50.554-27.505 54.075-24.417 57.064-21.336 60.054-17.712 62.372-13.539 64.02-9.371 65.673-4.826 66.497 .097 66.497 4.826 66.497 9.28 65.704 13.453 64.117 17.62 62.525 21.141 60.146 24.002 56.973L19.615 52.58C16.937 55.319 13.978 57.296 10.744 58.511 7.504 59.725 4.02 60.335 .28 60.335-3.642 60.335-7.286 59.663-10.647 58.328-14.008 56.985-16.931 55.088-19.42 52.629-21.916 50.17-23.862 47.302-25.259 44.039-26.663 40.768-27.364 37.168-27.364 33.252-27.364 29.329-26.663 25.729-25.259 22.464-23.862 19.194-21.916 16.327-19.42 13.868-16.931 11.409-14.008 9.512-10.647 8.176-7.286 6.834-3.642 6.163 .28 6.163 4.02 6.163 7.504 6.785 10.744 8.036 13.978 9.28 16.937 11.269 19.615 14.008L24.002 9.622C21.141 6.443 17.62 4.045 13.453 2.428 9.28 .811 4.795 0 0 0" fill="#0a0203"/>
<path transform="matrix(1,0,0,-1,583.1702,387.3156)" d="M0 0C-3.673 0-6.864 .61-9.573 1.824-12.282 3.038-14.35 4.716-15.784 6.87-17.218 9.017-17.931 11.488-17.931 14.289-17.931 16.845-17.327 19.164-16.113 21.25-14.899 23.337-12.904 25.015-10.134 26.29-7.364 27.565-3.642 28.205 1.025 28.205H17.931V23.257H1.214C-3.521 23.257-6.803 22.416-8.639 20.738-10.476 19.054-11.397 16.967-11.397 14.478-11.397 11.677-10.305 9.432-8.127 7.754-5.948 6.071-2.898 5.235 1.025 5.235 4.765 5.235 7.986 6.089 10.695 7.803 13.398 9.511 15.375 11.988 16.625 15.229L18.114 10.646C16.87 7.413 14.71 4.826 11.629 2.897 8.542 .969 4.668 0 0 0M16.9 .47V11.305L16.625 13.074V31.195C16.625 35.368 15.454 38.571 13.124 40.817 10.787 43.056 7.315 44.179 2.709 44.179-.47 44.179-3.49 43.648-6.351 42.592-9.219 41.53-11.641 40.127-13.636 38.388L-16.626 43.336C-14.136 45.454-11.147 47.089-7.657 48.242-4.173 49.388-.5 49.968 3.362 49.968 9.713 49.968 14.612 48.395 18.072 45.252 21.525 42.104 23.252 37.327 23.252 30.914V.47Z" fill="#0a0203"/>
<path transform="matrix(1,0,0,-1,0,595.276)" d="M616.788 257.459H647.14108V251.95001H616.788ZM625.567 208.43V263.627C625.567 267.984 626.842 271.498 629.399 274.176 631.949 276.855 635.622 278.191 640.418 278.191 642.284 278.191 644.091 277.947 645.836 277.446 647.574 276.947 649.039 276.171 650.222 275.11L647.983 270.162C647.049 270.973 645.957 271.577 644.713 271.986 643.468 272.389 642.126 272.59 640.698 272.59 637.898 272.59 635.75 271.809 634.256 270.254 632.761 268.698 632.01 266.397 632.01 263.347V255.873L632.199 252.792V208.43Z" fill="#0a0203"/>
<path transform="matrix(1,0,0,-1,676.097,387.3156)" d="M0 0C-5.107 0-9.591 1.073-13.447 3.228-17.309 5.375-20.329 8.328-22.507 12.098-24.685 15.863-25.777 20.177-25.777 25.033-25.777 29.89-24.734 34.185-22.648 37.918-20.561 41.653-17.7 44.599-14.057 46.747-10.415 48.894-6.321 49.968-1.776 49.968 2.832 49.968 6.925 48.925 10.507 46.838 14.088 44.752 16.907 41.823 18.957 38.059 21.013 34.294 22.038 29.95 22.038 25.033 22.038 24.722 22.025 24.392 21.995 24.051 21.965 23.709 21.946 23.349 21.946 22.977H-20.731V27.925H18.395L15.784 25.966C15.784 29.517 15.021 32.672 13.496 35.448 11.97 38.218 9.896 40.378 7.285 41.933 4.668 43.489 1.648 44.27-1.776 44.27-5.137 44.27-8.157 43.489-10.835 41.933-13.514 40.378-15.595 38.199-17.089 35.399-18.584 32.598-19.334 29.389-19.334 25.777V24.752C-19.334 21.018-18.511 17.73-16.857 14.898-15.21 12.062-12.904 9.853-9.945 8.267-6.992 6.68-3.612 5.888 .189 5.888 3.173 5.888 5.961 6.412 8.548 7.474 11.129 8.529 13.356 10.152 15.223 12.33L18.957 8.035C16.779 5.418 14.057 3.429 10.787 2.056 7.517 .689 3.924 0 0 0" fill="#0a0203"/>
</g>
</svg>
